<?xml version="1.0" standalone="no"?>
<!DOCTYPE svg PUBLIC "-//W3C//DTD SVG 20010904//EN"
 "http://www.w3.org/TR/2001/REC-SVG-20010904/DTD/svg10.dtd">
<svg version="1.0" xmlns="http://www.w3.org/2000/svg"
 width="512.000000pt" height="512.000000pt" viewBox="0 0 512.000000 512.000000"
 preserveAspectRatio="xMidYMid meet">

<g transform="translate(0.000000,512.000000) scale(0.100000,-0.100000)"
fill="#000000" stroke="none">
<path d="M893 5106 c-121 -30 -248 -126 -305 -232 -57 -106 -58 -117 -58 -736
l0 -568 75 0 74 0 3 578 3 577 23 50 c36 79 123 157 200 180 l22 6 -2 -2007
-3 -2008 -45 -11 c-53 -14 -122 -48 -167 -83 l-33 -24 0 1296 0 1296 -75 0
-75 0 0 -1503 c0 -1644 -3 -1558 58 -1671 59 -110 194 -209 320 -235 37 -8
585 -11 1867 -11 l1815 0 0 75 0 75 -70 0 -70 0 0 325 0 325 70 0 70 0 -2
1748 -3 1747 -72 3 -73 3 -2 -1673 -3 -1673 -1157 -3 -1158 -2 0 -75 0 -75
1090 0 1090 0 0 -158 c0 -88 -3 -234 -7 -326 l-6 -166 -1681 2 -1681 3 -56 28
c-66 32 -132 99 -162 165 -33 72 -30 199 6 269 34 66 83 115 150 151 l52 27
528 3 527 3 0 74 0 75 -445 0 -445 0 0 2010 0 2010 1680 0 1680 0 0 -260 0
-260 75 0 75 0 0 335 0 335 -1822 -1 c-1424 -1 -1834 -3 -1875 -13z"/>
<path d="M1508 4186 c-275 -80 -367 -417 -171 -627 14 -15 21 -29 16 -31 -4
-3 -45 -15 -90 -28 -56 -15 -83 -28 -83 -37 0 -15 30 -125 35 -131 2 -2 57 13
124 32 66 20 124 36 128 36 4 0 -37 -42 -91 -92 l-98 -93 56 -55 56 -54 76 74
c59 58 75 69 70 50 -33 -124 -47 -214 -53 -327 l-6 -133 76 0 c87 0 77 12 96
-116 33 -219 167 -466 343 -628 284 -264 680 -363 1055 -265 429 113 761 484
825 923 l12 86 73 0 c58 0 75 3 80 16 16 42 -28 360 -63 459 -4 11 30 -16 75
-60 l82 -80 49 55 49 55 -92 93 c-50 50 -89 92 -86 92 2 0 59 -16 124 -34 66
-19 123 -32 126 -28 6 7 39 121 39 134 0 3 -12 9 -27 12 -16 4 -59 16 -96 27
l-68 20 41 45 c76 82 109 198 89 309 -52 293 -397 412 -621 215 -49 -42 -102
-134 -113 -192 -4 -21 -9 -38 -11 -38 -2 0 -38 23 -81 51 -193 126 -395 191
-638 205 -98 6 -251 -7 -328 -27 -36 -10 -37 -11 -31 -48 l6 -39 -56 -16 c-30
-9 -62 -19 -70 -22 -9 -4 -18 6 -26 31 -10 30 -15 35 -33 29 -39 -12 -161 -76
-217 -114 -30 -20 -60 -40 -67 -44 -8 -4 -16 7 -24 36 -29 110 -111 207 -214
254 -68 31 -178 40 -247 20z m718 -1268 c20 -40 47 -89 60 -110 l24 -38 452 2
452 3 54 103 c30 56 58 102 61 102 3 0 31 -46 61 -103 l55 -102 143 -3 144 -3
-7 -52 c-10 -68 -48 -201 -79 -271 -120 -271 -397 -491 -695 -551 -127 -26
-345 -17 -466 19 -287 86 -518 297 -632 576 -33 80 -63 200 -63 249 l0 31 140
0 139 0 58 110 c32 60 59 110 60 110 2 0 19 -32 39 -72z"/>
<path d="M2060 2550 l0 -80 198 2 197 3 0 75 0 75 -197 3 -198 2 0 -80z"/>
<path d="M3060 2550 l0 -80 200 0 200 0 0 80 0 80 -200 0 -200 0 0 -80z"/>
<path d="M2583 2188 c-61 -49 -60 -57 19 -111 64 -44 162 -71 221 -62 58 9
156 57 192 95 l30 31 -50 44 c-28 24 -53 44 -57 45 -4 0 -29 -14 -56 -31 -38
-23 -62 -31 -97 -31 -38 0 -58 7 -92 31 -24 17 -47 31 -51 31 -4 -1 -30 -20
-59 -42z"/>
</g>
</svg>
